<mxfile host="app.diagrams.net" modified="2021-06-28T17:04:13.271Z" agent="5.0 (Windows)" etag="eCeXw2NsPeO8DmAxndaJ" version="14.7.8" type="github">
  <diagram id="kgpKYQtTHZ0yAKxKKP6v" name="Page-1">
    <mxGraphModel dx="716" dy="460" grid="1" gridSize="10" guides="1" tooltips="1" connect="1" arrows="1" fold="1" page="1" pageScale="1" pageWidth="583" pageHeight="413" math="0" shadow="0">
      <root>
        <mxCell id="0" />
        <mxCell id="1" parent="0" />
        <mxCell id="ikVDPYkvy_KfhcE0olBv-12" style="edgeStyle=orthogonalEdgeStyle;rounded=0;orthogonalLoop=1;jettySize=auto;html=1;exitX=1;exitY=0.5;exitDx=0;exitDy=0;" edge="1" parent="1" source="ikVDPYkvy_KfhcE0olBv-8" target="ikVDPYkvy_KfhcE0olBv-10">
          <mxGeometry relative="1" as="geometry" />
        </mxCell>
        <mxCell id="ikVDPYkvy_KfhcE0olBv-8" value="edit text here" style="rounded=1;whiteSpace=wrap;html=1;" vertex="1" parent="1">
          <mxGeometry x="30" y="177" width="120" height="60" as="geometry" />
        </mxCell>
        <mxCell id="ikVDPYkvy_KfhcE0olBv-13" style="edgeStyle=orthogonalEdgeStyle;rounded=0;orthogonalLoop=1;jettySize=auto;html=1;exitX=1;exitY=0.5;exitDx=0;exitDy=0;" edge="1" parent="1" source="ikVDPYkvy_KfhcE0olBv-10">
          <mxGeometry relative="1" as="geometry">
            <mxPoint x="370" y="207" as="targetPoint" />
          </mxGeometry>
        </mxCell>
        <mxCell id="ikVDPYkvy_KfhcE0olBv-10" value="edit this text easily" style="rounded=1;whiteSpace=wrap;html=1;fillColor=#fff2cc;strokeColor=#d6b656;" vertex="1" parent="1">
          <mxGeometry x="210" y="177" width="80" height="60" as="geometry" />
        </mxCell>
        <mxCell id="ikVDPYkvy_KfhcE0olBv-14" value="" style="ellipse;whiteSpace=wrap;html=1;" vertex="1" parent="1">
          <mxGeometry x="480" y="90" width="80" height="60" as="geometry" />
        </mxCell>
        <mxCell id="ikVDPYkvy_KfhcE0olBv-15" value="" style="ellipse;whiteSpace=wrap;html=1;" vertex="1" parent="1">
          <mxGeometry x="480" y="177" width="80" height="60" as="geometry" />
        </mxCell>
        <mxCell id="ikVDPYkvy_KfhcE0olBv-16" value="" style="ellipse;whiteSpace=wrap;html=1;" vertex="1" parent="1">
          <mxGeometry x="480" y="260" width="80" height="60" as="geometry" />
        </mxCell>
        <mxCell id="ikVDPYkvy_KfhcE0olBv-20" style="edgeStyle=orthogonalEdgeStyle;rounded=0;orthogonalLoop=1;jettySize=auto;html=1;exitX=1;exitY=0.5;exitDx=0;exitDy=0;entryX=0;entryY=0.5;entryDx=0;entryDy=0;" edge="1" parent="1" source="ikVDPYkvy_KfhcE0olBv-17" target="ikVDPYkvy_KfhcE0olBv-15">
          <mxGeometry relative="1" as="geometry" />
        </mxCell>
        <mxCell id="ikVDPYkvy_KfhcE0olBv-17" value="here and " style="whiteSpace=wrap;html=1;aspect=fixed;fillColor=#f8cecc;strokeColor=#b85450;" vertex="1" parent="1">
          <mxGeometry x="370" y="177" width="60" height="60" as="geometry" />
        </mxCell>
        <mxCell id="ikVDPYkvy_KfhcE0olBv-18" value="" style="endArrow=classic;html=1;" edge="1" parent="1">
          <mxGeometry width="50" height="50" relative="1" as="geometry">
            <mxPoint x="430" y="180" as="sourcePoint" />
            <mxPoint x="480" y="130" as="targetPoint" />
          </mxGeometry>
        </mxCell>
        <mxCell id="ikVDPYkvy_KfhcE0olBv-23" value="" style="endArrow=classic;html=1;exitX=1;exitY=1;exitDx=0;exitDy=0;entryX=0.025;entryY=0.283;entryDx=0;entryDy=0;entryPerimeter=0;" edge="1" parent="1" source="ikVDPYkvy_KfhcE0olBv-17" target="ikVDPYkvy_KfhcE0olBv-16">
          <mxGeometry width="50" height="50" relative="1" as="geometry">
            <mxPoint x="440" y="287" as="sourcePoint" />
            <mxPoint x="490" y="237" as="targetPoint" />
          </mxGeometry>
        </mxCell>
      </root>
    </mxGraphModel>
  </diagram>
</mxfile>
